<svg width="18" height="24" viewBox="0 0 18 24" fill="none" xmlns="http://www.w3.org/2000/svg">
<path d="M8.075 23.516C1.264 13.642 0 12.629 0 9C0 6.61305 0.948212 4.32387 2.63604 2.63604C4.32387 0.948212 6.61305 0 9 0C11.3869 0 13.6761 0.948212 15.364 2.63604C17.0518 4.32387 18 6.61305 18 9C18 12.629 16.736 13.642 9.925 23.516C9.82148 23.6655 9.68325 23.7878 9.52215 23.8722C9.36104 23.9566 9.18188 24.0007 9 24.0007C8.81812 24.0007 8.63896 23.9566 8.47785 23.8722C8.31675 23.7878 8.17852 23.6655 8.075 23.516ZM9 12.75C9.74168 12.75 10.4667 12.5301 11.0834 12.118C11.7001 11.706 12.1807 11.1203 12.4645 10.4351C12.7484 9.74984 12.8226 8.99584 12.6779 8.26841C12.5333 7.54098 12.1761 6.8728 11.6517 6.34835C11.1272 5.8239 10.459 5.46675 9.73159 5.32206C9.00416 5.17736 8.25016 5.25162 7.56494 5.53545C6.87971 5.81928 6.29404 6.29993 5.88199 6.91661C5.46993 7.5333 5.25 8.25832 5.25 9C5.25 9.99456 5.64509 10.9484 6.34835 11.6517C7.05161 12.3549 8.00544 12.75 9 12.75Z" fill="white"/>
</svg>
