<svg width="30" height="21" viewBox="0 0 30 21" fill="none" xmlns="http://www.w3.org/2000/svg">
<path d="M9 10.5C10.0384 10.5 11.0534 10.1921 11.9167 9.61522C12.7801 9.03834 13.453 8.2184 13.8504 7.25909C14.2477 6.29978 14.3517 5.24418 14.1491 4.22578C13.9466 3.20738 13.4465 2.27192 12.7123 1.53769C11.9781 0.803466 11.0426 0.303452 10.0242 0.10088C9.00582 -0.101693 7.95022 0.00227472 6.99091 0.399635C6.0316 0.796995 5.21166 1.4699 4.63478 2.33326C4.05791 3.19662 3.75 4.21165 3.75 5.25C3.74961 5.93955 3.88513 6.62242 4.14883 7.25956C4.41253 7.89669 4.79922 8.47561 5.28681 8.96319C5.7744 9.45078 6.35331 9.83747 6.99045 10.1012C7.62758 10.3649 8.31045 10.5004 9 10.5ZM12.6 12H12.211C11.2125 12.4934 10.1137 12.7501 9 12.7501C7.88625 12.7501 6.78749 12.4934 5.789 12H5.4C3.96783 12 2.59432 12.5689 1.58162 13.5816C0.568927 14.5943 0 15.9678 0 17.4L0 18.75C0.000265004 19.3467 0.237403 19.9188 0.659302 20.3407C1.0812 20.7626 1.65334 20.9997 2.25 21H15.75C16.3467 20.9997 16.9188 20.7626 17.3407 20.3407C17.7626 19.9188 17.9997 19.3467 18 18.75V17.4C18 15.9678 17.4311 14.5943 16.4184 13.5816C15.4057 12.5689 14.0322 12 12.6 12ZM22.5 10.5C23.39 10.5 24.26 10.2361 25.0001 9.74162C25.7401 9.24715 26.3169 8.54434 26.6575 7.72208C26.9981 6.89981 27.0872 5.99501 26.9135 5.1221C26.7399 4.24918 26.3113 3.44736 25.682 2.81802C25.0526 2.18869 24.2508 1.7601 23.3779 1.58647C22.505 1.41284 21.6002 1.50195 20.7779 1.84254C19.9557 2.18314 19.2529 2.75991 18.7584 3.49994C18.2639 4.23996 18 5.10999 18 6C18 7.19348 18.4741 8.33807 19.318 9.18198C20.1619 10.0259 21.3065 10.5 22.5 10.5ZM24.75 12H24.572C23.2359 12.5001 21.7641 12.5001 20.428 12H20.25C19.3312 12.006 18.4304 12.2551 17.639 12.722C18.8298 13.9891 19.495 15.6612 19.5 17.4V19.2C19.5 19.3 19.477 19.4 19.472 19.5H27.75C28.3467 19.4997 28.9188 19.2626 29.3407 18.8407C29.7626 18.4188 29.9997 17.8467 30 17.25C30.0004 16.5605 29.8649 15.8776 29.6012 15.2404C29.3375 14.6033 28.9508 14.0244 28.4632 13.5368C27.9756 13.0492 27.3967 12.6625 26.7596 12.3988C26.1224 12.1351 25.4396 11.9996 24.75 12Z" fill="black"/>
</svg>
